<svg width="18" height="16" viewBox="0 0 18 16" fill="none" xmlns="http://www.w3.org/2000/svg">
  <path d="M9.83354 0.5C10.7122 0.5 11.432 1.1799 11.4956 2.04228L11.5002 2.16667V15.5H6.5002V2.16667C6.5002 1.28803 7.1801 0.568196 8.04248 0.504571L8.16687 0.5H9.83354ZM15.6669 4.66667C16.5874 4.66667 17.3335 5.41286 17.3335 6.33333V13.8333C17.3335 14.7538 16.5874 15.5 15.6669 15.5H13.1669V4.66667H15.6669ZM4.83354 7.16667V15.5H2.33354C1.41306 15.5 0.66687 14.7538 0.66687 13.8333V8.83333C0.66687 7.91283 1.41306 7.16667 2.33354 7.16667H4.83354Z" fill="white"/>
  </svg>
