<svg width="20" height="21" viewBox="0 0 20 21" fill="none" xmlns="http://www.w3.org/2000/svg">
  <path d="M6.25 19.7074C6.94036 19.7074 7.5 19.1478 7.5 18.4574C7.5 17.7671 6.94036 17.2074 6.25 17.2074C5.55964 17.2074 5 17.7671 5 18.4574C5 19.1478 5.55964 19.7074 6.25 19.7074Z" fill="#6500E4"/>
  <path d="M15 19.7074C15.6904 19.7074 16.25 19.1478 16.25 18.4574C16.25 17.7671 15.6904 17.2074 15 17.2074C14.3096 17.2074 13.75 17.7671 13.75 18.4574C13.75 19.1478 14.3096 19.7074 15 19.7074Z" fill="#6500E4"/>
  <path d="M17.5 5.33247H3.6375L3.125 2.70747C3.09578 2.56417 3.01724 2.43566 2.90304 2.3443C2.78884 2.25294 2.64622 2.20452 2.5 2.20747H0V3.45747H1.9875L4.375 15.4575C4.40422 15.6008 4.48276 15.7293 4.59696 15.8206C4.71116 15.912 4.85378 15.9604 5 15.9575H16.25V14.7075H5.5125L5 12.2075H16.25C16.3945 12.211 16.5357 12.1644 16.6497 12.0755C16.7636 11.9866 16.8432 11.861 16.875 11.72L18.125 6.09497C18.1459 6.00223 18.1455 5.90594 18.1236 5.81343C18.1017 5.72091 18.059 5.6346 17.9987 5.56107C17.9385 5.48755 17.8622 5.42874 17.7758 5.38912C17.6894 5.34951 17.595 5.33013 17.5 5.33247ZM15.75 10.9575H4.7625L3.8875 6.58247H16.7188L15.75 10.9575Z" fill="#6500E4"/>
  </svg>
