<svg width="20" height="21" viewBox="0 0 20 21" fill="none" xmlns="http://www.w3.org/2000/svg">
  <path d="M14.0312 4.70744C14.4863 4.70706 14.9368 4.79752 15.3565 4.97353C15.7761 5.14954 16.1564 5.40755 16.475 5.73244C17.1315 6.39893 17.4995 7.29691 17.4995 8.23244C17.4995 9.16797 17.1315 10.066 16.475 10.7324L9.99998 17.2887L3.52498 10.7324C2.86847 10.066 2.50047 9.16797 2.50047 8.23244C2.50047 7.29691 2.86847 6.39893 3.52498 5.73244C3.84379 5.40779 4.22409 5.14991 4.64368 4.97387C5.06326 4.79784 5.51372 4.70717 5.96873 4.70717C6.42375 4.70717 6.8742 4.79784 7.29379 4.97387C7.71337 5.14991 8.09367 5.40779 8.41248 5.73244L9.99998 7.35744L11.5812 5.74494C11.8989 5.41618 12.2796 5.15485 12.7005 4.97659C13.1215 4.79833 13.5741 4.70678 14.0312 4.70744ZM14.0312 3.45744C13.4097 3.45691 12.7944 3.58048 12.2213 3.82088C11.6482 4.06128 11.1289 4.41369 10.6937 4.85744L9.99998 5.55744L9.30623 4.85744C8.87057 4.41449 8.3511 4.0627 7.7781 3.82256C7.20509 3.58242 6.59002 3.45875 5.96873 3.45875C5.34744 3.45875 4.73237 3.58242 4.15936 3.82256C3.58636 4.0627 3.06689 4.41449 2.63123 4.85744C1.74491 5.75971 1.24829 6.97392 1.24829 8.23869C1.24829 9.50347 1.74491 10.7177 2.63123 11.6199L9.99998 19.0824L17.3687 11.6199C18.2551 10.7177 18.7517 9.50347 18.7517 8.23869C18.7517 6.97392 18.2551 5.75971 17.3687 4.85744C16.9332 4.41426 16.4138 4.06222 15.8407 3.82185C15.2677 3.58149 14.6526 3.45761 14.0312 3.45744Z" fill="#6500E4"/>
  </svg>
