<svg width="21" height="18" viewBox="0 0 21 18" fill="none" xmlns="http://www.w3.org/2000/svg">
  <path d="M1.26222 10.974C1.34814 10.9879 1.4351 10.9944 1.52211 10.9933L16.3372 10.9933L16.0141 11.1435C15.6984 11.293 15.4111 11.4964 15.1652 11.7445L11.0107 15.899C10.4635 16.4214 10.3716 17.2616 10.7928 17.8899C11.2831 18.5594 12.2232 18.7048 12.8928 18.2145C12.9469 18.1749 12.9983 18.1317 13.0466 18.0852L20.5593 10.5725C21.1464 9.98608 21.147 9.03474 20.5605 8.44762C20.5601 8.44725 20.5597 8.44682 20.5593 8.44645L13.0466 0.933754C12.459 0.347811 11.5077 0.349125 10.9217 0.936712C10.8756 0.982962 10.8325 1.03217 10.7928 1.08401C10.3716 1.7123 10.4635 2.55255 11.0107 3.07487L15.1577 7.2369C15.3781 7.45759 15.6316 7.64264 15.909 7.78533L16.3597 7.98817L1.6048 7.98817C0.837233 7.95967 0.163813 8.49584 0.0196152 9.25031C-0.113218 10.0694 0.443098 10.8411 1.26222 10.974Z" fill="#6500E4"/>
  </svg>
