<svg width="12" height="11" viewBox="0 0 12 11" fill="none" xmlns="http://www.w3.org/2000/svg">
  <path d="M11.2787 6.98515C11.2296 6.99312 11.1799 6.9968 11.1302 6.99615L2.66446 6.99615L2.84906 7.08201C3.0295 7.16741 3.19365 7.28365 3.33417 7.42545L5.70818 9.79946C6.02084 10.0979 6.07338 10.5781 5.83267 10.9371C5.55253 11.3197 5.01529 11.4027 4.63268 11.1226C4.60177 11.1 4.57239 11.0753 4.54478 11.0487L0.251816 6.75575C-0.0836792 6.42063 -0.0839744 5.877 0.251145 5.54151C0.25136 5.54129 0.251602 5.54105 0.251816 5.54084L4.54478 1.24787C4.88055 0.913043 5.42417 0.913794 5.75902 1.24956C5.78537 1.27599 5.80998 1.3041 5.83267 1.33373C6.07338 1.69275 6.02084 2.17289 5.70818 2.47136L3.33846 4.84967C3.21249 4.97577 3.06765 5.08151 2.90916 5.16305L2.65159 5.27896L11.083 5.27896C11.5216 5.26268 11.9064 5.56906 11.9888 6.00018C12.0647 6.46825 11.7468 6.90922 11.2787 6.98515Z" fill="white"/>
  </svg>
