<svg width="12" height="11" viewBox="0 0 12 11" fill="none" xmlns="http://www.w3.org/2000/svg">
  <path d="M0.721267 6.98515C0.770368 6.99312 0.820059 6.9968 0.869777 6.99615L9.33554 6.99615L9.15094 7.08201C8.9705 7.16741 8.80635 7.28365 8.66583 7.42545L6.29182 9.79946C5.97916 10.0979 5.92662 10.5781 6.16733 10.9371C6.44747 11.3197 6.98471 11.4027 7.36732 11.1226C7.39823 11.1 7.42761 11.0753 7.45522 11.0487L11.7482 6.75575C12.0837 6.42063 12.084 5.877 11.7489 5.54151C11.7486 5.54129 11.7484 5.54105 11.7482 5.54084L7.45522 1.24787C7.11945 0.913043 6.57583 0.913794 6.24098 1.24956C6.21463 1.27599 6.19002 1.3041 6.16733 1.33373C5.92662 1.69275 5.97916 2.17289 6.29182 2.47136L8.66154 4.84967C8.78751 4.97577 8.93235 5.08151 9.09084 5.16305L9.34841 5.27896L0.917026 5.27896C0.478418 5.26268 0.0936079 5.56906 0.0112095 6.00018C-0.0646954 6.46825 0.2532 6.90922 0.721267 6.98515Z" fill="white"/>
  </svg>
