<svg width="13" height="13" viewBox="0 0 13 13" fill="none" xmlns="http://www.w3.org/2000/svg">
  <g clip-path="url(#clip0_465_2962)">
  <path d="M9.48173 0H3.51971C1.57931 0 0.000732422 1.57858 0.000732422 3.51898V9.4811C0.000732422 11.4214 1.57931 13 3.51971 13H9.48183C11.4221 13 13.0007 11.4214 13.0007 9.4811V3.51898C13.0007 1.57858 11.4221 0 9.48173 0V0ZM12.2386 9.4811C12.2386 11.0012 11.0019 12.2379 9.48173 12.2379H3.51971C1.99955 12.2379 0.762847 11.0012 0.762847 9.4811V3.51898C0.762847 1.99881 1.99955 0.762114 3.51971 0.762114H9.48183C11.0019 0.762114 12.2386 1.99881 12.2386 3.51898V9.4811Z" fill="#6500E4"/>
  <path d="M6.50075 2.94531C4.54071 2.94531 2.94617 4.53986 2.94617 6.49989C2.94617 8.45993 4.54071 10.0545 6.50075 10.0545C8.46078 10.0545 10.0553 8.45993 10.0553 6.49989C10.0553 4.53986 8.46078 2.94531 6.50075 2.94531ZM6.50075 9.29236C4.96105 9.29236 3.70828 8.03969 3.70828 6.49989C3.70828 4.96019 4.96105 3.70743 6.50075 3.70743C8.04055 3.70743 9.29322 4.96019 9.29322 6.49989C9.29322 8.03969 8.04055 9.29236 6.50075 9.29236Z" fill="#6500E4"/>
  <path d="M10.1403 1.68311C9.56108 1.68311 9.08997 2.15432 9.08997 2.73344C9.08997 3.31266 9.56108 3.78388 10.1403 3.78388C10.7195 3.78388 11.1907 3.31266 11.1907 2.73344C11.1907 2.15422 10.7195 1.68311 10.1403 1.68311ZM10.1403 3.02166C9.98141 3.02166 9.85208 2.89233 9.85208 2.73344C9.85208 2.57445 9.98141 2.44522 10.1403 2.44522C10.2993 2.44522 10.4286 2.57445 10.4286 2.73344C10.4286 2.89233 10.2993 3.02166 10.1403 3.02166Z" fill="#6500E4"/>
  </g>
  <defs>
  <clipPath id="clip0_465_2962">
  <rect width="13" height="13" fill="white" transform="translate(0.000732422)"/>
  </clipPath>
  </defs>
  </svg>
